# xmcd CD database file
#
# Track frame offsets:
#	150
#	13977
#	40089
#	83209
#	100675
#	114007
#	127797
#	139742
#	167219
#	189586
#	213188
#	232300
#	246482
#
# Disc length: 3427 seconds
#
# Revision: 4
# Processed by: cddbd v1.5.1PL0 Copyright (c) Steve Scherf et al.
# Submitted via: CDex 1.51
#
DISCID=ac0d610d
DTITLE=Van Morrison - At His Best - Disk 1
DYEAR=2000
DGENRE=Other
TTITLE0=Brown-Eyed Girl
TTITLE1=He Ain't Give You None
TTITLE2=T.B. Sheets
TTITLE3=Spanish Rose
TTITLE4=Goodbye Baby (Baby Goodbye)
TTITLE5=Ro Ro Rosey
TTITLE6=Midnight Special
TTITLE7=Beside You
TTITLE8=It's All Right
TTITLE9=Madame George
TTITLE10=Joe Harper Saturday Morning
TTITLE11=Chick-a-boom
TTITLE12=I Love You (The Smile You Smile)
EXTD=\n\n YEAR: 2000
EXTT0=
EXTT1=
EXTT2=
EXTT3=
EXTT4=
EXTT5=
EXTT6=
EXTT7=
EXTT8=
EXTT9=
EXTT10=
EXTT11=
EXTT12=
PLAYORDER=
